<?xml version="1.0" standalone="no"?><!DOCTYPE svg PUBLIC "-//W3C//DTD SVG 1.1//EN" "http://www.w3.org/Graphics/SVG/1.1/DTD/svg11.dtd"><svg t="1486449206797" class="icon" style="" viewBox="0 0 1024 1024" version="1.1" xmlns="http://www.w3.org/2000/svg" p-id="1243" xmlns:xlink="http://www.w3.org/1999/xlink" width="32" height="32"><defs><style type="text/css"></style></defs><path d="M89 935V790c0-68.9 56.1-125 125-125h596c68.9 0 125 56.1 125 125v145H89z" fill="#F7C1BF" p-id="1244"></path><path d="M810 690c55.1 0 100 44.9 100 100v120H114V790c0-55.1 44.9-100 100-100h596m0-50H214c-82.8 0-150 67.2-150 150v170h896V790c0-82.8-67.2-150-150-150z" fill="#3A3644" p-id="1245"></path><path d="M113.5 853.8h796v56h-796z" fill="#F3A9A7" p-id="1246"></path><path d="M298.7 720.5c-27.6 0-50 22.4-50 50s22.4 50 50 50 50-22.4 50-50-22.4-50-50-50z m142.2 0c-27.6 0-50 22.4-50 50s22.4 50 50 50 50-22.4 50-50-22.4-50-50-50z m142.2 0c-27.6 0-50 22.4-50 50s22.4 50 50 50 50-22.4 50-50-22.4-50-50-50z m142.2 0c-27.6 0-50 22.4-50 50s22.4 50 50 50 50-22.4 50-50-22.4-50-50-50z" fill="#EB6877" p-id="1247"></path><path d="M224 665V560c0-68.9 56.1-125 125-125h326c68.9 0 125 56.1 125 125v105H224z" fill="#FFC06E" p-id="1248"></path><path d="M675 460c55.1 0 100 44.9 100 100v80H249v-80c0-55.1 44.9-100 100-100h326m0-50H349c-82.8 0-150 67.2-150 150v130h626V560c0-82.8-67.2-150-150-150z" fill="#3A3644" p-id="1249"></path><path d="M249 585.3h526v56H249z" fill="#FFAD55" p-id="1250"></path><path d="M594 464c0-1.6 0.1-3.2 0.1-4.7h80.6c21.7 0 41.7 7.6 58.1 19.3-5.8 36.7-34.5 63.9-68.9 63.9-38.6 0-69.9-35.1-69.9-78.5z m-70 78.5c38.7 0 70-35.1 70-78.5 0-1.6-0.1-3.2-0.1-4.7H454.1c-0.1 1.6-0.1 3.2-0.1 4.7 0 43.4 31.3 78.5 70 78.5z m-210-76.3c0.6 42.8 31.7 76.3 70 76.3 38.7 0 70-35.1 70-78.5 0-1.6-0.1-3.2-0.1-4.7H348.1c-12 0-23.4 3.1-34.1 6.9z" fill="#FFFFFF" p-id="1251"></path><path d="M487 250h50v160h-50z" fill="#3A3644" p-id="1252"></path><path d="M512 267.6c-22.8 0-42.2-6.6-56.2-19.1-12.7-11.4-19.8-27-19.8-43.9 0-25.7 13.7-56.9 37.7-85.6 20.5-24.6 39.7-36.7 48.5-39.4 3.2 41.5 24.7 67.2 42 88 11.6 13.8 21.5 25.8 22.9 38.6 1.4 13.4-2.9 26.2-12.6 37-13.9 15.5-36.7 24.4-62.5 24.4z" fill="#F24A5D" p-id="1253"></path><path d="M510.8 103.5c8.2 33.4 27.2 56.2 41.9 73.7 10 12 18.6 22.3 19.5 30.6 1.2 11.5-4.1 20.1-8.8 25.3-11.1 12.4-29.8 19.5-51.3 19.5-35.9 0-61-19.7-61-48 0-21 11.4-47.4 31.2-72.3 8.6-10.8 18.4-20.8 27.8-28.1 0.2-0.3 0.4-0.5 0.7-0.7M525.4 64C496 64 421 138.1 421 204.6c0 43 35.8 78 91 78s94.5-35.9 90-78c-4.3-40.3-61-61.7-65-128-0.5-8.7-4.9-12.6-11.6-12.6z" fill="#3A3644" p-id="1254"></path><path d="M510.9 103.6s-17 12.3-33.4 34.9c-9 12.3-14.5 23.1-18.5 31.8-17.8 39.4-0.9 58.3-0.9 58.3s10-24.8 22.8-48.5c10.5-19.5 42.2-44.3 42.2-44.3s-3.4-6.3-6.5-14.3c-3.3-8.3-5.7-17.9-5.7-17.9z" fill="#F8B052" p-id="1255"></path></svg>