<?xml version="1.0" standalone="no"?><!DOCTYPE svg PUBLIC "-//W3C//DTD SVG 1.1//EN" "http://www.w3.org/Graphics/SVG/1.1/DTD/svg11.dtd"><svg t="1505544884115" class="icon" style="" viewBox="0 0 1024 1024" version="1.1" xmlns="http://www.w3.org/2000/svg" p-id="929" xmlns:xlink="http://www.w3.org/1999/xlink" width="32" height="32"><defs><style type="text/css"></style></defs><path d="M266 498h505.7v295.3H266z" fill="#F1F1F1" p-id="930"></path><path d="M324.3 498h52v297h-52z" fill="#DEDEDE" p-id="931"></path><path d="M518.8 498h52v297h-52z" fill="#A8BCC0" p-id="932"></path><path d="M716.8 498h52v297h-52z" fill="#ACB5E2" p-id="933"></path><path d="M877 935H147c-5.5 0-10-4.5-10-10V813c0-5.5 4.5-10 10-10h730c5.5 0 10 4.5 10 10v112c0 5.5-4.5 10-10 10z" fill="#8CA8CB" p-id="934"></path><path d="M152 860h720v20H152z" fill="#6F8AA8" p-id="935"></path><path d="M272 812H172V302h100v510z m193.3-510h-100v510h100V302z m193.4 0h-100v510h100V302z m193.3 0H752v510h100V302zM940 960H84c-11 0-20-9-20-20v-40c0-11 9-20 20-20h856c11 0 20 9 20 20v40c0 11-9 20-20 20z" fill="#3A3644" p-id="936"></path><path d="M117 467c-13.8 0-25-11.2-25-25V292c0-13.8 11.2-25 25-25h790c13.8 0 25 11.2 25 25v150c0 13.8-11.2 25-25 25H117z" fill="#F9F9F9" p-id="937"></path><path d="M906.9 292s0.1 0.1 0 0l0.1 149.9-0.1 0.1H117.1l-0.1-0.1V292.1l0.1-0.1h789.8m0.1-50H117c-27.5 0-50 22.5-50 50v150c0 27.5 22.5 50 50 50h790c27.5 0 50-22.5 50-50V292c0-27.5-22.5-50-50-50z" fill="#3A3644" p-id="938"></path><path d="M683.8 466c-2.2-6.1-3.4-12.5-3.4-19 0-30.3 24.7-55 55-55s55 24.7 55 55c0 6.5-1.2 12.9-3.4 19H683.8z m-148.9 0c-2.2-6.1-3.4-12.5-3.4-19 0-30.3 24.7-55 55-55s55 24.7 55 55c0 6.5-1.2 12.9-3.4 19H534.9z m-149 0c-2.2-6.1-3.4-12.5-3.4-19 0-30.3 24.7-55 55-55s55 24.7 55 55c0 6.5-1.2 12.9-3.4 19H385.9zM237 466c-2.2-6.1-3.4-12.5-3.4-19 0-30.3 24.7-55 55-55s55 24.7 55 55c0 6.5-1.2 12.9-3.4 19H237z" fill="#F6C174" p-id="939"></path><path d="M735.4 407c22.1 0 40 17.9 40 40 0 1.3-0.1 2.7-0.2 4h-79.6c-0.1-1.3-0.2-2.7-0.2-4 0-22.1 18-40 40-40m-148.9 0c22.1 0 40 17.9 40 40 0 1.3-0.1 2.7-0.2 4h-79.6c-0.1-1.3-0.2-2.7-0.2-4 0-22.1 17.9-40 40-40m-149 0c22.1 0 40 17.9 40 40 0 1.3-0.1 2.7-0.2 4h-79.6c-0.1-1.3-0.2-2.7-0.2-4 0-22.1 18-40 40-40m-148.9 0c22.1 0 40 17.9 40 40 0 1.3-0.1 2.7-0.2 4h-79.6c-0.1-1.3-0.2-2.7-0.2-4 0-22.1 17.9-40 40-40m446.8-30c-38.7 0-70 31.3-70 70 0 12.3 3.2 23.9 8.8 34h122.4c5.6-10.1 8.8-21.7 8.8-34 0-38.7-31.3-70-70-70z m-148.9 0c-38.7 0-70 31.3-70 70 0 12.3 3.2 23.9 8.8 34h122.4c5.6-10.1 8.8-21.7 8.8-34 0-38.7-31.4-70-70-70z m-149 0c-38.7 0-70 31.3-70 70 0 12.3 3.2 23.9 8.8 34h122.4c5.6-10.1 8.8-21.7 8.8-34 0-38.7-31.3-70-70-70z m-148.9 0c-38.7 0-70 31.3-70 70 0 12.3 3.2 23.9 8.8 34h122.4c5.6-10.1 8.8-21.7 8.8-34 0-38.7-31.4-70-70-70z" fill="#3A3644" p-id="940"></path><path d="M411.1 246v-5h58v-86.5l-0.1-0.9c-0.1-0.4-0.1-0.6-0.1-0.6V84s0-0.2 0.1-0.6l0.1-0.9V79h2.5l11 1.1c12.8 1.3 33.6 2.9 60.4 2.9 36.7 0 59.5-3 65.8-3.9 2.4 0.4 4.2 2.4 4.2 4.9v69c0 2.8-2.2 5-5 5h-1.3l-1.3 0.2c-0.2 0-22.6 3.8-64.4 3.8-26 0-44.4-1.4-55.2-2.6l-16.6-1.8V241h76v5H411.1z" fill="#F43853" p-id="941"></path><path d="M483.9 95.3c13.3 1.3 33.6 2.7 59 2.7 24.5 0 43.1-1.3 55-2.5v48.6c-8.5 1-27.8 2.9-57 2.9-25.3 0-43.1-1.4-53.6-2.5l-3.4-0.4V95.3m124-31.3s-23 4-65 4c-26.7 0-47.3-1.6-58.8-2.8V64h-30v17.5c-0.1 0.8-0.2 1.6-0.2 2.5v69c0 0.8 0.1 1.7 0.2 2.5V226h-58v35h164v-35h-76v-51.7c10.7 1.2 29.8 2.7 56.8 2.7 44 0 67-4 67-4 11 0 20-9 20-20V84c0-11-8.9-20-20-20z" fill="#3A3644" p-id="942"></path></svg>