<?xml version="1.0" standalone="no"?><!DOCTYPE svg PUBLIC "-//W3C//DTD SVG 1.1//EN" "http://www.w3.org/Graphics/SVG/1.1/DTD/svg11.dtd"><svg t="1486449844333" class="icon" style="" viewBox="0 0 1024 1024" version="1.1" xmlns="http://www.w3.org/2000/svg" p-id="1605" xmlns:xlink="http://www.w3.org/1999/xlink" width="32" height="32"><defs><style type="text/css"></style></defs><path d="M494 921c-111.9 0-216.4-15.6-318.8-47.7l-8.4-571h651.4l-5.6 571C710.3 905.4 605.9 921 494 921z" fill="#C2D1DC" p-id="1606"></path><path d="M793 327.3l-5.2 527.4C693.5 882.5 597 896 494 896s-199.6-13.5-294-41.3l-7.7-527.4H793m50.5-50h-702l9 614.3C255.4 926.4 368.2 946 494 946c125.8 0 238.6-19.6 343.5-54.4l6-614.3z" fill="#3A3644" p-id="1607"></path><path d="M708.3 327.3H194.5V450C267 537 329.3 606.1 351 623c36 28 376-182 416-146-5.1 194.1-49 386-423 370-51.5-2.2-96.1-8.1-143.5-23.7v31.5C294.6 882.2 389.1 896 494 896s199.4-13.8 293.5-41.2l6-359.1V327.3h-85.2z" fill="#94ABBE" p-id="1608"></path><path d="M793.5 327.3l-3.7 378.1c-38.4 11.1-78.5 20-119.6 26.5C614.9 740.6 557.7 745 500 745c-59.9 0-119.3-4.8-176.6-14.2-43.2-7.1-85.2-16.8-125.2-29l-5.5-374.5h600.8m50.5-50H142l6.8 461C252.4 774.4 372.3 795 500 795c122.9 0 238.6-19.1 339.5-52.7l4.5-465z" fill="#3A3644" p-id="1609"></path><path d="M368.7 583.1c-1.1 0-2.2-0.2-3.2-0.5L93.8 258.4l-2.7-1.9c-2.1-1.5-2.2-2.7-2.1-3.6 0.1-0.8 0.8-2.9 4.4-3.9l0.7-0.2L519.9 92c6.9-2 14-3 21.3-3 10.8 0 21.5 2.3 31.1 6.7l358 235.7 1.5 0.7c2.1 1 3.2 2.3 3.2 3.9 0 1.9-1.7 3.1-3.2 3.8l-559 242.4-0.2 0.1c-1.1 0.5-2.5 0.8-3.9 0.8z" fill="#8CA8CB" p-id="1610"></path><path d="M541.2 114c6.6 0 13.2 1.3 19.2 3.7l325.9 214.5-511.8 222-244.8-291.9 397.9-146.5c4.4-1.2 8.9-1.8 13.6-1.8m0-50c-9.8 0-19.7 1.4-29.2 4.3L86.2 225.1c-24.7 7.4-30.2 37.4-9.5 51.9l272.5 325c5.7 4 12.6 6 19.5 6 4.9 0 9.7-1 14.3-3.1l559-242.5c23.7-10.8 24-41.8 0.6-53L584.5 73.8C571 67.3 556.1 64 541.2 64z" fill="#3A3644" p-id="1611"></path><path d="M348.2 523c51.2-0.6 101-7.9 147.7-21.4l-121.5 52.7-26.2-31.3zM610 452c12.3-7.4 24.2-15.4 35.6-24 63.4-47.5 105.7-107.2 123.7-172.8l116.9 77L610 452z" fill="#5C81AD" p-id="1612"></path><path d="M873.5 580h70v380h-70z" fill="#0075A9" p-id="1613"></path><path d="M873.5 580h20v380h-20V580z m33.8 0v380h20V580h-20zM893.5 359h30v154.3h-30z" fill="#3A3644" p-id="1614"></path><path d="M878.5 575.3c-2.7 0-5-2.3-5-5v-40.1c0-2.7 2.3-5 5-5h60c2.7 0 5 2.3 5 5v40.1c0 2.7-2.3 5-5 5h-60z" fill="#F46070" p-id="1615"></path><path d="M928.5 540.3v20.1h-40v-20.1h40m10-30h-60c-11 0-20 9-20 20v40.1c0 11 9 20 20 20h60c11 0 20-9 20-20v-40.1c0-11-9-20-20-20z" fill="#3A3644" p-id="1616"></path></svg>