<?xml version="1.0" standalone="no"?><!DOCTYPE svg PUBLIC "-//W3C//DTD SVG 1.1//EN" "http://www.w3.org/Graphics/SVG/1.1/DTD/svg11.dtd"><svg t="1486449969225" class="icon" style="" viewBox="0 0 1024 1024" version="1.1" xmlns="http://www.w3.org/2000/svg" p-id="2108" xmlns:xlink="http://www.w3.org/1999/xlink" width="32" height="32"><defs><style type="text/css"></style></defs><path d="M154 862c-35.8 0-65-29.2-65-65V227c0-35.8 29.2-65 65-65h716c35.8 0 65 29.2 65 65v570c0 35.8-29.2 65-65 65H154z" fill="#E5E5E5" p-id="2109"></path><path d="M870 187c10.6 0 20.6 4.2 28.2 11.8 7.6 7.6 11.8 17.6 11.8 28.2v570c0 10.6-4.2 20.6-11.8 28.2-7.6 7.6-17.6 11.8-28.2 11.8H154c-10.6 0-20.6-4.2-28.2-11.8-7.6-7.6-11.8-17.6-11.8-28.2V227c0-10.6 4.2-20.6 11.8-28.2 7.6-7.6 17.6-11.8 28.2-11.8h716m0-50H154c-49.5 0-90 40.5-90 90v570c0 49.5 40.5 90 90 90h716c49.5 0 90-40.5 90-90V227c0-49.5-40.5-90-90-90z" fill="#3A3644" p-id="2110"></path><path d="M154 837c-7.4 0-14.3-2-20.2-5.5h575.7c77.2 0 140-62.8 140-140V187H870c22.1 0 40 17.9 40 40v570c0 22.1-17.9 40-40 40H154z" fill="#B2C5E4" p-id="2111"></path><path d="M849.4 456.6l-316.8 155-419.8-233.8 736.6-39.7z" fill="#C4C4C5" p-id="2112"></path><path d="M529 562.4c-7.7 0-15.3-1.9-22.1-5.5L89 337V227c0-35.8 29.2-65 65-65h716c35.8 0 65 29.2 65 65v127.9L551.1 557c-6.8 3.6-14.4 5.4-22.1 5.4z" fill="#FFFFFF" p-id="2113"></path><path d="M870 187c10.6 0 20.6 4.2 28.2 11.8 7.6 7.6 11.8 17.6 11.8 28.2v112.8l-370.5 195c-3.2 1.7-6.8 2.6-10.5 2.6-3.6 0-7.2-0.9-10.5-2.6L114 321.9V227c0-10.6 4.2-20.6 11.8-28.2 7.6-7.6 17.6-11.8 28.2-11.8h716m0-50H154c-49.5 0-90 40.5-90 90v125.1l431.3 227c10.6 5.6 22.2 8.3 33.7 8.3 11.6 0 23.2-2.8 33.7-8.3L960 370V227c0-49.5-40.5-90-90-90z" fill="#3A3644" p-id="2114"></path><path d="M741 779c-33.1 0-60-26.9-60-60s26.9-60 60-60 60 26.9 60 60-26.9 60-60 60z" fill="#F46070" p-id="2115"></path><path d="M741 674c24.8 0 45 20.2 45 45s-20.2 45-45 45-45-20.2-45-45 20.2-45 45-45m0-30c-41.4 0-75 33.6-75 75s33.6 75 75 75 75-33.6 75-75-33.6-75-75-75z" fill="#3A3644" p-id="2116"></path><path d="M540 660.6h100v40H540zM460 730.6h180v40H460z" fill="#8E8C93" p-id="2117"></path><path d="M114 235.1V227c0-22.1 17.9-40 40-40h716c22.1 0 40 17.9 40 40v8.1H114z" fill="#E5E5E5" p-id="2118"></path></svg>