<?xml version="1.0" standalone="no"?><!DOCTYPE svg PUBLIC "-//W3C//DTD SVG 1.1//EN" "http://www.w3.org/Graphics/SVG/1.1/DTD/svg11.dtd"><svg t="1486449907137" class="icon" style="" viewBox="0 0 1024 1024" version="1.1" xmlns="http://www.w3.org/2000/svg" p-id="1858" xmlns:xlink="http://www.w3.org/1999/xlink" width="32" height="32"><defs><style type="text/css"></style></defs><path d="M81.2 830a430.8 125 0 1 0 861.6 0 430.8 125 0 1 0-861.6 0Z" fill="#FFC06E" p-id="1859"></path><path d="M522.6 701v50h-20v-50h20z m-20 231h20v-50h-20v50zM95.1 834h80v-20h-80v20z m750-20v20h80v-20h-80z" fill="#FFFFFF" p-id="1860"></path><path d="M960 830c0 25.7-25.8 49.7-70.3 69.9v-0.1c-0.1 0-0.1 0.1-0.2 0.1-10.3 5.1-22.8 0.9-28-9.4-5.1-10.3-0.9-22.8 9.4-27.9 0.2-0.1 0.4-0.2 0.5-0.2 24.7-11.2 38.5-23.8 38.5-37.1 0-47.5-176.8-86-395-86s-395 38.5-395 86 176.8 86 395 86c51.6 0 96.7-1.9 141.8-5.9 0.2 0 0.4 0 0.6-0.1H657.6c12.9-0.7 24 9 25 21.9 0.9 13-8.8 24.3-21.8 25.3-46.6 4.8-96.7 7.4-148.9 7.4-247.4 0-448-58.2-448-130s200.6-130 448-130S960 758.2 960 830z m-190.6 58.3c-13 0.9-22.8 12.3-21.9 25.3 0.9 13 12.3 22.8 25.3 21.9 13-0.9 22.8-12.3 21.9-25.3-0.9-13.1-12.3-22.9-25.3-21.9z" fill="#3A3644" p-id="1861"></path><path d="M511.9 819c-26.5-20.9-84.6-68.9-142.1-131.9-45-49.3-80.7-97.8-106.2-144.4-31-56.6-46.7-110-46.7-158.8 0-78.8 30.7-152.9 86.4-208.6C359.1 119.7 433.2 89 512 89c78.8 0 152.9 30.7 208.6 86.4S807 305.2 807 384c0 48.4-15.8 101.7-46.9 158.3-25.6 46.6-61.4 95.3-106.6 144.8-57.4 63-115.2 111-141.6 131.9z" fill="#F24A5D" p-id="1862"></path><path d="M512 114c36.5 0 71.8 7.1 105.1 21.2 32.1 13.6 61 33.1 85.8 57.9 24.8 24.8 44.3 53.7 57.9 85.8C774.9 312.2 782 347.5 782 384c0 81.4-50.4 180-145.8 285-47.1 51.8-94.8 93.6-124.3 117.9-29.5-24.2-77.1-65.7-124.1-117.3C321.3 596.7 242 487.9 242 384c0-36.5 7.1-71.8 21.2-105.1 13.6-32.1 33.1-61 57.9-85.8 24.8-24.8 53.7-44.3 85.8-57.9C440.2 121.1 475.5 114 512 114m0-50c-176.7 0-320 143.3-320 320 0 233 320 466.6 320 466.6S832 615 832 384c0-176.7-143.3-320-320-320z" fill="#3A3644" p-id="1863"></path><path d="M512 320.1m-40 0a40 40 0 1 0 80 0 40 40 0 1 0-80 0Z" fill="#3A3644" p-id="1864"></path><path d="M248.4 437.2c-4.3-18.4-6.4-36.1-6.4-53.2 0-72.1 28.1-139.9 79.1-190.9 51-51 118.8-79.1 190.9-79.1 19.1 0 38.1 2 56.5 5.9-150.9 47.8-270.6 166.7-320.1 317.3z" fill="#F48070" p-id="1865"></path><path d="M511.9 786.9c-34.4-28.2-93.3-79.9-147.4-143.8 19.9 3.5 40.1 5.2 60.5 5.2 184.1 0 335.6-142.1 350.8-322.3 4.1 18.9 6.2 38.3 6.2 57.9 0 81.4-50.4 180-145.8 285-47.1 51.9-94.8 93.7-124.3 118z" fill="#E73344" p-id="1866"></path></svg>