<?xml version="1.0" standalone="no"?><!DOCTYPE svg PUBLIC "-//W3C//DTD SVG 1.1//EN" "http://www.w3.org/Graphics/SVG/1.1/DTD/svg11.dtd"><svg t="1486450186021" class="icon" style="" viewBox="0 0 1024 1024" version="1.1" xmlns="http://www.w3.org/2000/svg" p-id="2360" xmlns:xlink="http://www.w3.org/1999/xlink" width="32" height="32"><defs><style type="text/css"></style></defs><path d="M262 935c-35.8 0-65-29.2-65-65V154c0-35.8 29.2-65 65-65h500c35.8 0 65 29.2 65 65v716c0 35.8-29.2 65-65 65H262z" fill="#E5E5E5" p-id="2361"></path><path d="M762 114c10.6 0 20.6 4.2 28.2 11.8 7.6 7.6 11.8 17.6 11.8 28.2v716c0 10.6-4.2 20.6-11.8 28.2-7.6 7.6-17.6 11.8-28.2 11.8H262c-10.6 0-20.6-4.2-28.2-11.8-7.6-7.6-11.8-17.6-11.8-28.2V154c0-10.6 4.2-20.6 11.8-28.2 7.6-7.6 17.6-11.8 28.2-11.8h500m0-50H262c-49.5 0-90 40.5-90 90v716c0 49.5 40.5 90 90 90h500c49.5 0 90-40.5 90-90V154c0-49.5-40.5-90-90-90z" fill="#3A3644" p-id="2362"></path><path d="M262 909.5c-13.5 0-25.5-6.7-32.7-17H618c60.7 0 110-49.3 110-110v-669h34c22.1 0 40 17.9 40 40v716c0 22.1-17.9 40-40 40H262z" fill="#B2C5E4" p-id="2363"></path><path d="M317 736.5c-19.3 0-35-15.7-35-35v-460c0-19.3 15.7-35 35-35h390c19.3 0 35 15.7 35 35v460c0 19.3-15.7 35-35 35H317z" fill="#8F8D94" p-id="2364"></path><path d="M707 221.5c10.8 0 20 9.2 20 20v460c0 10.8-9.2 20-20 20H317c-10.8 0-20-9.2-20-20v-460c0-10.8 9.2-20 20-20h390m0-30H317c-27.5 0-50 22.5-50 50v460c0 27.5 22.5 50 50 50h390c27.5 0 50-22.5 50-50v-460c0-27.5-22.5-50-50-50zM612 165.8H472c-5.5 0-10-4.5-10-10s4.5-10 10-10h140c5.5 0 10 4.5 10 10s-4.5 10-10 10z m-180-10c0-5.5-4.5-10-10-10h-10c-5.5 0-10 4.5-10 10s4.5 10 10 10h10c5.5 0 10-4.5 10-10z" fill="#3A3644" p-id="2365"></path><path d="M504 860.5c-22.1 0-40-17.9-40-40s17.9-40 40-40 40 17.9 40 40-17.9 40-40 40z" fill="#F46070" p-id="2366"></path><path d="M504 795.5c13.8 0 25 11.2 25 25s-11.2 25-25 25-25-11.2-25-25 11.2-25 25-25m0-30c-30.4 0-55 24.6-55 55s24.6 55 55 55 55-24.6 55-55-24.6-55-55-55z" fill="#3A3644" p-id="2367"></path><path d="M412.1 221.5h57.7l175.2 304c5.5 9.5 2.2 21.8-7.3 27.3l-8.7 5c-9.5 5.5-21.8 2.2-27.3-7.3l-189.6-329z m47.7 279.3c5.5 9.5 17.8 12.8 27.3 7.3l8.7-5c9.5-5.5 12.8-17.8 7.3-27.3L356.6 221.5h-40c-7.3 0-12.4 4.4-14.5 6.6l157.7 272.7z" fill="#BBBBBC" p-id="2368"></path></svg>