<?xml version="1.0" standalone="no"?><!DOCTYPE svg PUBLIC "-//W3C//DTD SVG 1.1//EN" "http://www.w3.org/Graphics/SVG/1.1/DTD/svg11.dtd"><svg t="1484156241518" class="icon" style="" viewBox="0 0 1024 1024" version="1.1" xmlns="http://www.w3.org/2000/svg" p-id="15050" xmlns:xlink="http://www.w3.org/1999/xlink" width="30" height="30"><defs><style type="text/css"></style></defs><path d="M806.227706 478.057056c-11.411316 32.010285-27.99445 61.808951-49.269749 88.561121-0.076263 0.07827-0.116401 0.142491-0.192664 0.210726l-96.709193 117.17972a15.001685 15.001685 0 0 1-11.640104 5.474863 15.025768 15.025768 0 0 1-9.486685-3.37563c-6.430154-5.213964-7.385445-14.590268-2.117295-20.954194l96.614869-117.089409c39.596422-49.789541 60.550616-109.72604 60.550616-173.333187 0-154.484247-126.784813-280.173285-282.617707-280.173285-155.80881 0-282.573554 125.689038-282.573554 280.173285 0 77.659561 31.293817 149.850281 88.101537 203.288392l95.053489 85.528673a14.786946 14.786946 0 0 1 1.009478 21.038484c-5.571195 6.10102-15.073934 6.556589-21.219106 1.019512l-95.165876-85.633032c-0.07827-0.064221-0.152525-0.142491-0.228789-0.21474-30.493058-28.656731-54.501776-62.459191-71.33176-100.46413-17.432059-39.33753-26.266496-81.253945-26.266496-124.563159 0-82.797262 32.528069-160.637446 91.569485-219.175127 59.041416-58.545708 137.545889-90.784782 221.051592-90.784782 83.525772 0 162.054328 32.239074 221.095744 90.784782 59.043423 58.535674 91.559451 136.377864 91.559451 219.175127 0 35.44813-5.992647 70.207888-17.787283 103.32599zM348.833842 380.992639c0 8.23437-6.737212 14.903347-15.019748 14.903346-8.316653 0-15.035803-6.668977-15.035803-14.903346 0-105.278718 86.405695-190.923792 192.579496-190.923792 8.322674 0 15.039817 6.668977 15.039817 14.885284 0 8.242398-6.717143 14.905354-15.039817 14.905354-89.60873-0.002007-162.523946 72.281031-162.523945 161.133154z m28.261369 381.207378l275.286448-39.797113c8.210287-1.18408 15.840576 4.447322 17.024655 12.595395 1.182073 8.125997-4.485454 15.692064-12.709789 16.886178l-275.252331 39.785072c-0.742558 0.116401-1.467054 0.164567-2.193557 0.164567-7.345307 0-13.759405-5.340399-14.84916-12.755948-1.198128-8.138038 4.489468-15.696078 12.693734-16.878151z m4.924968 73.982894l275.286448-39.789085c8.210287-1.192107 15.840576 4.447322 17.024655 12.58536 1.182073 8.140045-4.485454 15.716147-12.711796 16.902234l-275.250323 39.785072a17.291575 17.291575 0 0 1-2.193558 0.170587c-7.345307 0-13.757399-5.344413-14.865215-12.745913-1.18408-8.170149 4.503516-15.726182 12.709789-16.908255z m37.438989 49.195494c7.273058-3.929538 16.394484-1.298474 20.362154 5.954515 14.407639 26.21833 42.078975 42.520496 72.154595 42.520497 29.234723 0 56.486614-15.613794 71.139096-40.706246 4.162341-7.116519 13.358023-9.542878 20.534749-5.418669 7.172712 4.120195 9.637203 13.223559 5.47687 20.362154-20.018972 34.252009-57.229172 55.529316-97.150715 55.529316-41.103615 0-78.851669-22.232598-98.54552-58.05-3.969677-7.214857-1.260342-16.260021 6.028771-20.191567z" fill="#FFFFFF" p-id="15051"></path></svg>