<?xml version="1.0" standalone="no"?><!DOCTYPE svg PUBLIC "-//W3C//DTD SVG 1.1//EN" "http://www.w3.org/Graphics/SVG/1.1/DTD/svg11.dtd"><svg t="1484156490519" class="icon" style="" viewBox="0 0 1024 1024" version="1.1" xmlns="http://www.w3.org/2000/svg" p-id="27208" xmlns:xlink="http://www.w3.org/1999/xlink" width="30" height="30"><defs><style type="text/css"></style></defs><path d="M853.36064 124.176384c24.76032 23.359488 24.477696 23.054336 45.254656 42.693632 20.777984 19.64032 41.12896 72.436736 0 113.565696S360.669184 818.382848 360.669184 818.382848s-227.987456 94.782464-239.940608 99.904512c-11.9552 5.124096-22.401024-6.546432-17.078272-18.784256 5.322752-12.239872 99.904512-229.696512 99.904512-229.696512s505.78432-508.343296 538.801152-541.360128S828.598272 100.81792 853.36064 124.176384zM138.944512 882.709504l188.992512-79.695872-108.72832-105.312256L138.944512 882.709504zM232.373248 674.290688l119.543808 116.672512 397.481984-397.694976L630.779904 277.732352 232.373248 674.290688zM648.748032 259.623936l118.816768 115.595264 52.493312-52.22912L701.261824 207.21664 648.748032 259.623936zM718.8736 188.217344l120.173568 115.595264c0 0 25.412608-25.510912 43.557888-43.656192s21.880832-51.339264-2.668544-75.460608c-20.57728-20.219904-21.900288-21.240832-40.889344-39.386112s-56.346624-19.504128-75.20256-1.067008C744.989696 162.680832 718.8736 188.217344 718.8736 188.217344z" p-id="27209" fill="#FFFFFF"></path></svg>