<?xml version="1.0" standalone="no"?><!DOCTYPE svg PUBLIC "-//W3C//DTD SVG 1.1//EN" "http://www.w3.org/Graphics/SVG/1.1/DTD/svg11.dtd"><svg t="1484156664643" class="icon" style="" viewBox="0 0 1024 1024" version="1.1" xmlns="http://www.w3.org/2000/svg" p-id="30550" xmlns:xlink="http://www.w3.org/1999/xlink" width="30" height="30"><defs><style type="text/css"></style></defs><path d="M864.787 442.095c-7.69-2.486-15.844 1.787-18.331 9.554-2.407 7.767 1.709 16.001 9.476 18.485 92.662 29.748 133.985 73.867 133.985 143.382 0 61.749-56.313 109.984-89.789 133.286-3.962 2.718-6.292 7.301-6.292 12.117v88.857c-17.554-7.068-45.438-21.67-70.449-50.176-3.495-3.884-8.622-5.669-13.748-4.738-6.913 1.398-14.059 3.262-21.049 5.204-12.66 3.418-24.623 6.679-36.195 6.679-61.129 0-103.925-13.204-147.578-45.595-6.524-4.894-15.613-3.418-20.35 3.107-4.816 6.524-3.418 15.767 3.107 20.661 49.089 36.428 96.935 51.264 164.898 51.264 15.457 0 29.826-3.962 43.729-7.69 3.728-1.088 7.534-2.097 11.184-3.028 45.205 47.535 96.003 58.332 98.334 58.876 0.932 0.156 1.863 0.31 2.874 0.31 3.34 0 6.603-1.165 9.244-3.418 3.34-2.797 5.281-6.913 5.281-11.34v-101.44c62.060-44.895 96.158-98.955 96.158-153.014-0.156-109.284-88.236-150.14-154.49-171.345zM802.804 431.842c0-187.889-169.636-329.563-394.731-329.563-226.103 0-403.197 144.781-403.197 329.642 0 88.314 49.866 170.336 144.082 237.755v159.46c0 4.894 2.563 9.554 6.679 12.35 2.407 1.553 5.126 2.253 8 2.253 2.019 0 4.039-0.388 5.981-1.243 3.495-1.632 85.207-39.069 155.5-116.042 30.137 5.669 64.080 10.953 94.993 10.953 228.978-0.078 382.691-122.878 382.691-305.563zM420.192 707.811c-31.301 0-66.954-5.903-97.634-11.884-5.049-1.009-10.253 0.854-13.67 4.738-46.914 53.283-101.596 88.002-130.645 104.237v-142.917c0-4.816-2.407-9.321-6.369-12.038-62.914-43.652-137.791-116.819-137.791-218.027 0-168.316 164.277-300.204 373.993-300.204 208.395 0 365.603 129.091 365.603 300.125 0 165.132-142.063 275.969-353.487 275.969zM403.881 380.812c-27.962 0-50.642 22.835-50.642 51.030s22.681 51.030 50.642 51.030c27.885 0 50.642-22.914 50.642-51.030s-22.681-51.030-50.642-51.030zM403.881 453.435c-11.807 0-21.438-9.709-21.438-21.593s9.631-21.593 21.438-21.593c11.807 0 21.36 9.709 21.36 21.593s-9.554 21.593-21.36 21.593zM572.041 380.812c-27.885 0-50.565 22.835-50.565 51.030s22.681 51.030 50.565 51.030c27.962 0 50.72-22.914 50.72-51.030s-22.757-51.030-50.72-51.030zM572.041 453.435c-11.807 0-21.36-9.709-21.36-21.593s9.554-21.593 21.36-21.593c11.807 0 21.438 9.709 21.438 21.593s-9.631 21.593-21.438 21.593zM235.719 383.063c-27.962 0-50.642 22.914-50.642 51.108 0 28.039 22.681 51.030 50.642 51.030 27.885 0 50.565-22.991 50.565-51.030 0.078-28.195-22.603-51.108-50.565-51.108zM235.719 455.687c-11.807 0-21.438-9.709-21.438-21.516 0-11.962 9.631-21.67 21.438-21.67 11.807 0 21.438 9.709 21.438 21.67 0 11.807-9.631 21.516-21.438 21.516z" p-id="30551" fill="#FFFFFF"></path></svg>