<?xml version="1.0" standalone="no"?><!DOCTYPE svg PUBLIC "-//W3C//DTD SVG 1.1//EN" "http://www.w3.org/Graphics/SVG/1.1/DTD/svg11.dtd"><svg t="1484156440053" class="icon" style="" viewBox="0 0 1024 1024" version="1.1" xmlns="http://www.w3.org/2000/svg" p-id="26389" xmlns:xlink="http://www.w3.org/1999/xlink" width="30" height="30"><defs><style type="text/css"></style></defs><path d="M266.24 426.666667 266.24 426.666667l85.333333-85.333333c6.826667-6.826667 6.826667-17.066667 0-23.893333-6.826667-6.826667-17.066667-6.826667-23.893333 0l-85.333333 85.333333c0 0 0 0 0 0l-42.666667-42.666667 0 0 85.333333-85.333333c6.826667-6.826667 6.826667-17.066667 0-23.893333-6.826667-6.826667-17.066667-6.826667-23.893333 0l-85.333333 85.333333 0 0-35.84-35.84c-13.653333-13.653333-13.653333-34.133333 0-47.786667l109.226667-109.226667c13.653333-13.653333 34.133333-13.653333 47.786667 0l187.733333 187.733333-157.013333 157.013333L266.24 426.666667zM150.186667 884.053333c-8.533333 0-15.36-6.826667-15.36-15.36 10.24-64.853333 23.893333-139.946667 34.133333-168.96l150.186667 150.186667C290.133333 860.16 216.746667 873.813333 150.186667 884.053333zM346.453333 829.44l-157.013333-157.013333 443.733333-443.733333 157.013333 157.013333L346.453333 829.44zM875.52 771.413333l-109.226667 109.226667c-13.653333 13.653333-34.133333 13.653333-47.786667 0l-47.786667-47.786667 0 0 85.333333-85.333333c6.826667-6.826667 6.826667-17.066667 0-23.893333l0 0c-6.826667-6.826667-17.066667-6.826667-23.893333 0l-85.333333 85.333333 0 0-52.906667-52.906667c0 0 0 0 0 0l85.333333-85.333333c6.826667-6.826667 6.826667-17.066667 0-23.893333-6.826667-6.826667-17.066667-6.826667-23.893333 0l-85.333333 85.333333 0 0-37.546667-37.546667 157.013333-157.013333 187.733333 187.733333C889.173333 737.28 889.173333 757.76 875.52 771.413333zM899.413333 699.733333l-187.733333-187.733333 180.906667-180.906667c27.306667-27.306667 27.306667-69.973333 0-97.28L785.066667 126.293333c-27.306667-27.306667-69.973333-27.306667-97.28 0L506.88 307.2l-187.733333-187.733333c-27.306667-27.306667-69.973333-27.306667-97.28 0l-109.226667 109.226667c-27.306667 27.306667-27.306667 69.973333 0 97.28l187.733333 187.733333-155.306667 155.306667C134.826667 679.253333 119.466667 745.813333 100.693333 863.573333l0 1.706667c0 13.653333 5.12 27.306667 13.653333 37.546667s23.893333 15.36 37.546667 13.653333l1.706667 0c119.466667-18.773333 186.026667-34.133333 197.973333-46.08l155.306667-155.306667 187.733333 187.733333c27.306667 27.306667 69.973333 27.306667 97.28 0l109.226667-109.226667C926.72 769.706667 926.72 725.333333 899.413333 699.733333zM713.386667 151.893333c13.653333-13.653333 35.84-13.653333 47.786667 0l109.226667 109.226667c13.653333 13.653333 13.653333 35.84 0 47.786667l-54.613333 54.613333L658.773333 204.8 713.386667 151.893333z" p-id="26390" fill="#FFFFFF"></path></svg>