<?xml version="1.0" standalone="no"?><!DOCTYPE svg PUBLIC "-//W3C//DTD SVG 1.1//EN" "http://www.w3.org/Graphics/SVG/1.1/DTD/svg11.dtd"><svg t="1484156273772" class="icon" style="" viewBox="0 0 1024 1024" version="1.1" xmlns="http://www.w3.org/2000/svg" p-id="16158" xmlns:xlink="http://www.w3.org/1999/xlink" width="30" height="30"><defs><style type="text/css"></style></defs><path d="M657.2 400c22.4-52.8 92.4-222.4 92.4-258.4V0h-475.6v141.2c0 36 69.6 206.8 91.6 258.8-108.4 54-182.8 165.2-182.8 294.4 0 181.6 147.2 329.2 329.2 329.2 181.6 0 329.2-147.2 329.2-329.2 0-129.2-75.2-240.8-184-294.4z m-346.4-258.8v-104.8h182v250.4h36.4v-250.4h183.6v104.8c0 20-44.8 138-89.6 244-34.8-12.4-72.4-20-111.6-20-39.6 0-77.6 7.2-112.8 20-37.6-90.8-88-221.6-88-244z m201.2 846.4c-161.2 0-292.4-131.2-292.4-292.4s131.2-292.4 292.4-292.4 292.4 131.2 292.4 292.4-131.2 292.4-292.4 292.4z" p-id="16159" fill="#FFFFFF"></path><path d="M512 475.6c-121.2 0-219.6 98.4-219.6 219.6 0 121.2 98.4 219.6 219.6 219.6 121.2 0 219.6-98.4 219.6-219.6 0-121.6-98.4-219.6-219.6-219.6z m0 402c-100.8 0-182.8-82-182.8-182.8S411.2 512 512 512c100.8 0 182.8 82 182.8 182.8s-82 182.8-182.8 182.8z" p-id="16160" fill="#FFFFFF"></path></svg>