<?xml version="1.0" standalone="no"?><!DOCTYPE svg PUBLIC "-//W3C//DTD SVG 1.1//EN" "http://www.w3.org/Graphics/SVG/1.1/DTD/svg11.dtd"><svg t="1484155986375" class="icon" style="" viewBox="0 0 1024 1024" version="1.1" xmlns="http://www.w3.org/2000/svg" p-id="7307" xmlns:xlink="http://www.w3.org/1999/xlink" width="30" height="30"><defs><style type="text/css"></style></defs><path d="M877.061848 517.092004 512.010553 175.437046 146.959457 516.089283c-7.13796 6.66608-7.539088 17.874481-0.861216 25.012442 6.66608 7.13796 17.874481 7.539088 25.012442 0.861216l340.876486-318.08214 340.888278 319.049484c3.42148 3.197232 7.763336 4.77816 12.093201 4.77816 4.7192 0 9.438601-1.875928 12.919041-5.6042C884.565561 534.966485 884.199609 523.769876 877.061848 517.092004zM765.662177 524.112044c-9.768977 0-17.697401 7.928425-17.697401 17.697401l0 271.360817-141.579609 0L606.385167 624.39765l-188.772812 0 0 188.772812-141.579609 0L276.032746 541.809445c0-9.768977-7.916633-17.697401-17.697401-17.697401s-17.697401 7.928425-17.697401 17.697401l0 306.75562L453.007357 848.565065l0-188.772612 117.983008 0 0 188.772612 212.369414 0L783.359778 541.809445C783.359578 532.040469 775.431154 524.112044 765.662177 524.112044zM641.780169 270.448628l106.184607 0 0 94.386406c0 9.780769 7.928425 17.697401 17.697401 17.697401s17.697401-7.916633 17.697401-17.697401l0-129.781208-141.579609 0c-9.768977 0-17.697401 7.916633-17.697401 17.697401S632.011192 270.448628 641.780169 270.448628z" p-id="7308" fill="#FFFFFF"></path></svg>