<?xml version="1.0" standalone="no"?><!DOCTYPE svg PUBLIC "-//W3C//DTD SVG 1.1//EN" "http://www.w3.org/Graphics/SVG/1.1/DTD/svg11.dtd"><svg t="1484155144023" class="icon" style="" viewBox="0 0 1024 1024" version="1.1" xmlns="http://www.w3.org/2000/svg" p-id="3120" xmlns:xlink="http://www.w3.org/1999/xlink" width="30" height="30"><defs><style type="text/css"></style></defs><path d="M321.95606 392.13964C321.95606 295.447606 401.973076 217.085115 500.680097 217.085115 599.395049 217.085115 679.404134 295.447606 679.404134 392.13964 679.404134 488.816534 599.395049 567.190559 500.680097 567.190559 401.977402 567.194164 321.95606 488.815813 321.95606 392.13964L321.95606 392.13964 321.95606 392.13964 321.95606 392.13964ZM290.414828 392.13964C290.414828 475.175173 340.612183 546.760239 412.8915 579.346813 291.170358 613.824377 199.735316 718.189945 186.857416 845.223592L218.552927 845.223592C234.246043 706.211039 354.561379 598.085121 500.679377 598.085121 646.797373 598.085121 767.116316 706.210318 782.806547 845.223592L814.50206 845.223592C801.63281 718.189228 710.189117 613.824377 588.469416 579.346814 660.748013 546.763843 710.949693 475.175173 710.949693 392.139641 710.949693 278.396987 616.806854 186.19488 500.680819 186.19488 384.551179 186.194158 290.414828 278.393382 290.414828 392.13964L290.414828 392.13964 290.414828 392.13964 290.414828 392.13964Z" p-id="3121" fill="#FFFFFF"></path></svg>