<?xml version="1.0" standalone="no"?><!DOCTYPE svg PUBLIC "-//W3C//DTD SVG 1.1//EN" "http://www.w3.org/Graphics/SVG/1.1/DTD/svg11.dtd"><svg t="1484156174670" class="icon" style="" viewBox="0 0 1024 1024" version="1.1" xmlns="http://www.w3.org/2000/svg" p-id="12040" xmlns:xlink="http://www.w3.org/1999/xlink" width="30" height="30"><defs><style type="text/css"></style></defs><path d="M512.010233 836.521095 179.329295 688.013783c1.127683 0.709151-29.450752-11.037381-51.192939-23.388686 0 18.452257 4.66423 38.984896 21.975501 48.112788L475.821009 858.423941c28.78151 13.503549 41.195238 13.503549 72.39789 0l325.710177-145.685034c16.060791-7.461949 21.954011-29.219485 21.954011-48.112788-20.936845 10.42135-50.599422 25.303292-51.17145 25.435299L512.010233 835.497788 512.010233 836.521095zM512.010233 829.357951" p-id="12041" fill="#FFFFFF"></path><path d="M147.759275 408.128281l328.452637 146.042167c29.024034 13.533224 41.542138 13.533224 73.007781 0L877.67233 408.128281c24.186865-11.157107 25.000394-58.585303 0-72.122621L549.219693 164.456562c-25.816992-15.127536-43.98477-14.349823-73.007781 0L147.759275 336.00566C122.754788 351.923188 121.943306 394.569474 147.759275 408.128281L147.759275 408.128281zM512.948605 180.286086c0.38681 0.119727 1.755993 0.319272 2.030239 0.528026l355.931478 190.173271L513.981121 530.803251 153.97893 370.992499l360.002191-190.707436L512.948605 180.285063z" p-id="12042" fill="#FFFFFF"></path><path d="M150.111856 560.103578 475.821009 705.800891c28.78151 13.504572 41.195238 13.504572 72.39789 0l325.710177-145.697313c16.060791-7.449669 21.954011-30.225395 21.954011-49.102325-20.936845 10.429537-50.599422 25.286919-51.17145 25.413809L512.010233 683.920558 179.329295 536.415063c1.127683 0.708128-29.450752-13.05841-51.192939-25.413809C128.136356 529.457604 132.799562 550.986943 150.111856 560.103578L150.111856 560.103578zM150.111856 560.103578" p-id="12043" fill="#FFFFFF"></path><path d="M479.594963 753.329371" p-id="12044" fill="#FFFFFF"></path><path d="M117.344568 590.623685" p-id="12045" fill="#FFFFFF"></path></svg>