<?xml version="1.0" standalone="no"?><!DOCTYPE svg PUBLIC "-//W3C//DTD SVG 1.1//EN" "http://www.w3.org/Graphics/SVG/1.1/DTD/svg11.dtd"><svg t="1484156125857" class="icon" style="" viewBox="0 0 1024 1024" version="1.1" xmlns="http://www.w3.org/2000/svg" p-id="10660" xmlns:xlink="http://www.w3.org/1999/xlink" width="30" height="30"><defs><style type="text/css"></style></defs><path d="M607.911 720.393c-50.001 28.887-69.914 89.712-49.068 141.805l-26.457 15.292V648.854l42.907-24.773c34.68 44.106 97.329 57.277 147.344 28.419 54.862-31.67 151.26-219.788 151.26-219.788s-211.125-10.599-265.985 21.084c-50.001 28.861-69.914 89.687-49.068 141.793l-26.457 15.263V429.336c66.479-9.866 117.526-67.017 117.526-136.252C649.912 216.924 512 3.481 512 3.481S374.096 216.924 374.096 293.084c0 69.235 51.06 126.386 117.526 136.252v181.517l-26.458-15.263c20.84-52.106 0.927-112.933-49.081-141.793-54.862-31.683-265.979-21.084-265.979-21.084S246.507 620.83 301.371 652.5c50.027 28.858 112.648 15.688 147.358-28.419l42.893 24.773v228.635l-26.458-15.292c20.84-52.093 0.927-112.918-49.081-141.805-54.862-31.671-265.979-21.058-265.979-21.058s96.403 188.076 151.268 219.745c50.006 28.888 112.648 15.73 147.337-28.377l42.914 24.788V1024h40.764V915.491l42.935-24.788c34.68 44.107 97.302 57.265 147.316 28.377 54.862-31.669 151.26-219.745 151.26-219.745s-211.127-10.613-265.987 21.058z m-20.154-188.032c5.568-20.691 18.852-38.003 37.38-48.715 5.271-3.025 38.257-18.174 170.79-18.174 6.996 0 14.049 0.042 21.114 0.127-45.831 81.627-90.632 144.898-111.631 157.025-12.226 7.053-26.076 10.77-40.037 10.77-28.634 0-55.286-15.376-69.589-40.137-10.712-18.569-13.566-40.18-8.027-60.896zM428.23 593.257c-14.31 24.761-40.971 40.137-69.597 40.137-13.97 0-27.812-3.731-40.021-10.77-21.023-12.127-65.802-75.397-111.633-157.025 7.051-0.085 14.104-0.127 21.1-0.127 132.576 0 165.505 15.149 170.783 18.203 18.557 10.684 31.834 27.995 37.375 48.687 5.56 20.715 2.705 42.326-8.007 60.895z m0 266.622c-14.31 24.761-40.971 40.138-69.597 40.138-13.991 0-27.812-3.732-40.021-10.783-21.009-12.112-65.802-75.383-111.626-157.012 7.25-0.085 14.33-0.112 21.205-0.112 132.485 0 165.414 15.105 170.671 18.145 38.307 22.132 51.487 71.297 29.368 109.624zM512 389.637c-53.225 0-96.524-43.331-96.524-96.553 0-33.706 46.758-126.923 96.524-210.871 49.78 83.933 96.545 177.138 96.545 210.871 0 53.222-43.301 96.553-96.545 96.553z m305.013 342.585c-45.817 81.629-90.604 144.899-111.619 157.025-12.209 7.037-26.03 10.77-40.008 10.77-28.618 0-55.299-15.377-69.602-40.138-22.131-38.327-8.96-87.492 29.368-109.625 5.256-3.039 38.171-18.145 170.662-18.145 6.869 0 13.963 0.028 21.199 0.113z" p-id="10661" fill="#FFFFFF"></path></svg>